<svg width="94" height="94" viewBox="0 0 94 94" fill="none" xmlns="http://www.w3.org/2000/svg">
<mask id="mask0_79_455" style="mask-type:alpha" maskUnits="userSpaceOnUse" x="6" y="1" width="82" height="92">
<path d="M42.3228 90.8342C45.4168 92.6205 49.2287 92.6205 52.3228 90.8342L82.7464 73.2691C85.8404 71.4827 87.7464 68.1815 87.7464 64.6088V29.4786C87.7464 25.9059 85.8404 22.6047 82.7464 20.8183L52.3228 3.25321C49.2287 1.46688 45.4168 1.46688 42.3228 3.25321L11.8991 20.8183C8.80506 22.6047 6.89907 25.9059 6.89907 29.4786V64.6088C6.89907 68.1815 8.80506 71.4827 11.8991 73.2691L42.3228 90.8342Z" fill="#D9D9D9"/>
</mask>
<g mask="url(#mask0_79_455)">
<rect width="54.4703" height="49.3891" rx="6.64603" transform="matrix(0.866025 -0.5 -0.5 -0.866025 29.4482 134.263)" fill="#4285F4"/>
<rect width="54.4703" height="55.9048" rx="6.64603" transform="matrix(0.866025 -0.5 -0.5 -0.866025 1.49609 85.8485)" fill="#F9AB00"/>
<rect width="54.4703" height="72.4547" rx="6.64603" transform="matrix(0.866025 -0.5 -0.5 -0.866025 82.2637 103.77)" fill="#5BB974"/>
<rect width="54.4703" height="55.9048" rx="6.64603" transform="matrix(0.866025 -0.5 -0.5 -0.866025 42.7783 35.38)" fill="#FF8BCB"/>
</g>
</svg>
